<svg xmlns="http://www.w3.org/2000/svg" version="1.1" xmlns:xlink="http://www.w3.org/1999/xlink" xmlns:svgjs="http://svgjs.com/svgjs" width="1440" height="560" preserveAspectRatio="none" viewBox="0 0 1440 560"><g mask="url(&quot;#SvgjsMask1204&quot;)" fill="none"><rect width="1440" height="560" x="0" y="0" fill="url(#SvgjsLinearGradient1205)"></rect><path d="M209.07 648.94C338.32 639.16 426.56 384.94 654.6 383.8 882.65 382.66 877.37 453.8 1100.14 453.8 1322.9 453.8 1432.92 384.01 1545.67 383.8" stroke="rgba(255, 255, 255, 0.17)" stroke-width="2"></path><path d="M337.63 628.66C486.49 561.06 418.03 91.13 705.3 87.85 992.58 84.57 1248.89 303.96 1440.65 306.25" stroke="rgba(255, 255, 255, 0.17)" stroke-width="2"></path><path d="M358.72 570.7C548.14 554.16 654.73 174.41 1001.74 164.49 1348.75 154.57 1481.34 47.37 1644.76 46.89" stroke="rgba(255, 255, 255, 0.17)" stroke-width="2"></path><path d="M614.17 656.84C705.68 643.61 662.46 438.87 904.52 427.73 1146.57 416.59 1332.01 234.35 1485.21 231.73" stroke="rgba(255, 255, 255, 0.17)" stroke-width="2"></path><path d="M429.78 567.03C596.84 562.71 715.15 333.12 1052.06 322.89 1388.97 312.66 1504.42 54.49 1674.34 48.49" stroke="rgba(255, 255, 255, 0.17)" stroke-width="2"></path></g><defs><mask id="SvgjsMask1204"><rect width="1440" height="560" fill="#ffffff"></rect></mask><linearGradient x1="0%" y1="50%" x2="100%" y2="50%" gradientUnits="userSpaceOnUse" id="SvgjsLinearGradient1205"><stop stop-color="#0e2a47" offset="0"></stop><stop stop-color="rgba(30, 10, 76, 0.8901960784313725)" offset="1"></stop></linearGradient></defs></svg>