<?xml version="1.0" encoding="utf-8"?>
<!-- Generator: Adobe Illustrator 23.0.2, SVG Export Plug-In . SVG Version: 6.00 Build 0)  -->
<svg version="1.1" id="Layer_1" xmlns="http://www.w3.org/2000/svg" xmlns:xlink="http://www.w3.org/1999/xlink" x="0px" y="0px"
	 viewBox="0 0 198.2 79.4" style="enable-background:new 0 0 198.2 79.4;" xml:space="preserve">
<style type="text/css">
	.st0{fill:#DEDEDE;}
	.st1{fill:#E5620E;}
	.st2{fill:#510B78;}
</style>
<g>
	<path class="st0" d="M174.2,79.4c-50.1,0-100.2,0-150.3,0c0-26.5,0-52.9,0-79.4C74,0,124.1,0,174.2,0
		C174.2,26.5,174.2,52.9,174.2,79.4z M31.5,5.8c-0.2,0.4-4,53.2-4,55.2c0,1.9,0.5,4.7,3.3,7.7S40.9,75,43.9,75
		c1.8,0,109.9,0,111.7,0s5.4-2.1,8.6-5.9c3.2-3.8,3.7-6.4,3.8-7.6c0.1-1.3,3.8-55.7,3.8-55.7H31.5z"/>
	<path class="st1" d="M116.4,21.6c-0.3,0.5-0.7,1-1.3,1.3c-3.1,1.7-6.3-0.5-6.3-3.5v-3.7c0-0.2,0.1-0.3,0.3-0.3h3.7
		C115.9,15.4,118.1,18.5,116.4,21.6z"/>
	<path class="st2" d="M88.9,19.6c0.1,2.1,1.8,3.8,3.9,3.9c2.3,0.1,4.2-1.8,4.2-4.1v-2.9c0-0.6-0.5-1.2-1.2-1.2h-2.9
		C90.6,15.4,88.8,17.3,88.9,19.6z"/>
	<g>
		<path class="st2" d="M98,21.6c0.3,0.5,0.7,1,1.3,1.3c3.1,1.7,6.3-0.5,6.3-3.5v-3.7c0-0.2-0.1-0.3-0.3-0.3h-3.7
			C98.5,15.4,96.3,18.5,98,21.6z"/>
		<path class="st2" d="M89.4,21.6c0.3,0.5,0.7,1,1.3,1.3c3.1,1.7,6.3-0.5,6.3-3.5v-3.7c0-0.2-0.1-0.3-0.3-0.3h-3.7
			C90,15.4,87.8,18.5,89.4,21.6z"/>
	</g>
	<g>
		<path class="st2" d="M125.2,64c0.3,0.5,0.7,1,1.3,1.3c3.1,1.7,6.3-0.5,6.3-3.5v-3.7c0-0.2-0.1-0.3-0.3-0.3h-3.7
			C125.7,57.8,123.5,60.9,125.2,64z"/>
		<path class="st2" d="M116.6,64c0.3,0.5,0.7,1,1.3,1.3c3.1,1.7,6.3-0.5,6.3-3.5v-3.7c0-0.2-0.1-0.3-0.3-0.3h-3.7
			C117.2,57.8,114.9,60.9,116.6,64z"/>
	</g>
	<path class="st1" d="M159.5,58.6v3.5c0,2-1.5,3.6-3.5,3.8c-0.1,0-0.2,0-0.4,0H135c-0.2,0-0.3-0.1-0.3-0.3v-3.5
		c0-2.1,1.7-3.8,3.8-3.8h20.7C159.4,58.3,159.5,58.4,159.5,58.6z"/>
	<g>
		<path class="st2" d="M45.8,50.2l14.1,0l-0.2,2.5c0,0.1-0.2,0.4-0.5,0.4l-13.7,0L45.8,50.2z"/>
		<path class="st2" d="M48.3,27.7l13.7,0l-1.8,20.1l-14.1,0l1.8-19.7C47.8,28,48,27.7,48.3,27.7z"/>
		<path class="st2" d="M34.4,9.1L30.5,55c-0.7,8.7,6.1,16.1,14.8,16.1l29.6,0l4.5-62.1L34.4,9.1z M64.3,27.9l-2.3,25.1
			c-0.1,1.4-1.4,2.5-2.8,2.5l-13.7,0c-1.4,0-2.5-1.1-2.4-2.5l2.3-25.1c0.1-1.4,1.4-2.5,2.8-2.5l13.7,0
			C63.4,25.4,64.5,26.5,64.3,27.9z"/>
	</g>
	<g>
		<path class="st2" d="M105.7,25.4H95.1c-5.7,0-10.4,4.5-10.6,10.2l-0.4,10.3c-0.2,5.2,4,9.6,9.2,9.6h2.2c4.8,0,8.8-3.7,9.2-8.4
			l1.8-20.6C106.7,25.8,106.2,25.4,105.7,25.4z M98.2,33.8l-0.8,13.4c0,0.4-0.3,0.6-0.7,0.6l-4.7,0c-0.4,0-0.8-0.4-0.7-0.8l0.8-13.4
			c0-0.4,0.3-0.6,0.7-0.6l4.7,0C97.9,33.1,98.3,33.4,98.2,33.8z"/>
	</g>
	<path class="st2" d="M151.5,25.6l-10.8,0c-0.6,0-1,0.5-1.1,1l-0.4,20.3c0,0.7,0,1.3,0.2,1.9l-2.2-0.3c-2.1-0.3-3.6-2.2-3.6-4.3
		l0.5-15.3c0.1-1.9-1.5-3.5-3.4-3.5h-3.1c-0.7,0-1.2,0.5-1.2,1.2l-0.8,21.7c0,0.1-0.1,0.3-0.2,0.3c-3.1,0.7-7.3,0.4-9.6-4.1
		c-0.1-0.2-0.2-0.6-0.2-0.8c0.3-4.7,0.5-10.6,0.7-14.4c0.1-1.9-1.4-3.8-3.3-3.9l-3.2,0c-0.5,0-0.9,0.4-1,0.9L106,65.2
		c0,0.4,0.3,0.7,0.7,0.7h3.8c1.9,0,3.5-1.5,3.6-3.4l0.5-7.6c0,0,2.6,1,6,1c1.7,0,4-1.1,5.9-2.2c0.9-0.5,2.1-0.5,2.9,0.1
		c3.8,2.6,7.4,2.7,12.2,0.3c0.5-0.3,1.1-0.3,1.6,0c1.3,0.6,3,1.1,4.4,1.1l2.3,0c5.3,0,10.1-4.2,10.4-9.4l0.8-10.1
		C161.6,30.1,157.3,25.6,151.5,25.6z M153.6,33.8L153,47c0,0.4-0.4,0.8-0.8,0.8l-4.8,0c-0.4,0-0.6-0.3-0.6-0.6l0.7-13.2
		c0-0.4,0.4-0.8,0.8-0.8l4.8,0C153.4,33.2,153.7,33.5,153.6,33.8z"/>
	<g>
		<path class="st2" d="M123,23h-2.4l0.9-7.3c1.1-0.3,2.2-0.4,3.3-0.4h0.5c0.8,0,1.3,0.1,1.7,0.4c0.8-0.2,1.5-0.4,2.2-0.4h0.5
			c0.9,0,1.6,0.2,2,0.7c0.4,0.5,0.6,1.1,0.5,2l-0.6,5h-2.4l0.6-4.8c0-0.3,0-0.6-0.2-0.7c-0.2-0.1-0.5-0.2-0.8-0.2h-0.1
			c-0.3,0-0.5,0-0.8,0.1c0,0.2,0,0.4,0,0.6l-0.6,5.1h-2.4l0.6-4.8c0.1-0.6-0.2-0.9-0.7-0.9h-0.4c-0.2,0-0.5,0-0.7,0.1L123,23z"/>
		<path class="st2" d="M139.9,18l-0.2,1.9h-4.6l-0.1,0.4c0,0.4,0,0.6,0.1,0.8c0.1,0.2,0.4,0.2,0.7,0.2h3.3l-0.2,1.5
			c-0.9,0.1-1.9,0.2-3,0.2h-0.6c-1.1,0-1.8-0.2-2.3-0.7c-0.4-0.5-0.6-1.1-0.5-2.1l0.3-2.3c0.1-0.9,0.4-1.6,1-2.1
			c0.5-0.5,1.4-0.7,2.4-0.7h0.8c1.1,0,1.8,0.2,2.3,0.7C139.8,16.4,140,17.1,139.9,18z M135.3,17.8l-0.1,0.6h2.2l0-0.4
			c0.1-0.7-0.2-1-0.7-1h-0.5C135.7,17,135.4,17.3,135.3,17.8z"/>
		<path class="st2" d="M147.4,18l-0.2,1.9h-4.6l-0.1,0.4c0,0.4,0,0.6,0.1,0.8c0.1,0.2,0.4,0.2,0.7,0.2h3.3l-0.2,1.5
			c-0.9,0.1-1.9,0.2-3,0.2H143c-1.1,0-1.8-0.2-2.3-0.7c-0.4-0.5-0.6-1.1-0.5-2.1l0.3-2.3c0.1-0.9,0.4-1.6,1-2.1
			c0.5-0.5,1.4-0.7,2.4-0.7h0.8c1.1,0,1.8,0.2,2.3,0.7C147.4,16.4,147.5,17.1,147.4,18z M142.9,17.8l-0.1,0.6h2.2l0-0.4
			c0.1-0.7-0.2-1-0.7-1h-0.5C143.3,17,143,17.3,142.9,17.8z"/>
		<path class="st2" d="M148.2,17.2l0.2-1.8h6.1l-0.2,1.7l-3.7,4h3.4l-0.2,1.8h-6.3l0.2-1.7l3.7-4H148.2z"/>
		<path class="st2" d="M161.9,17.9l-0.6,4.8c-1.1,0.2-2.2,0.3-3.5,0.3H157c-0.8,0-1.5-0.2-1.9-0.6c-0.4-0.4-0.6-0.9-0.5-1.6l0.1-0.5
			c0.1-0.7,0.4-1.2,0.9-1.6c0.5-0.4,1.2-0.6,2-0.6h0.5c0.5,0,0.9,0,1.4,0.1l0.1-0.5c0.1-0.6-0.2-0.9-0.8-0.9h-2.9l0.2-1.5
			c0.9-0.2,1.9-0.2,3-0.2h0.4C161.2,15.3,162.1,16.1,161.9,17.9z M158.4,19.9h-0.5c-0.5,0-0.8,0.2-0.8,0.6l0,0.2
			c-0.1,0.4,0.2,0.6,0.7,0.6h0.5c0.4,0,0.7,0,0.8-0.1l0.2-1.4C159,19.9,158.7,19.9,158.4,19.9z"/>
	</g>
</g>
</svg>
